<svg xmlns="http://www.w3.org/2000/svg" viewBox="0 0 1024 1024">
<path d="M8641 8894 c0 -11 3 -14 6 -6 3 7 2 16 -1 19 -3 4 -6 -2 -5 -13z"/>
<path d="M8662 8770 c0 -14 2 -19 5 -12 2 6 2 18 0 25 -3 6 -5 1 -5 -13z"/>
<path d="M8672 8675 c0 -16 2 -22 5 -12 2 9 2 23 0 30 -3 6 -5 -1 -5 -18z"/>
<path d="M8672 8350 c0 -19 2 -27 5 -17 2 9 2 25 0 35 -3 9 -5 1 -5 -18z"/>
<path d="M8039 8303 c-13 -16 -12 -17 4 -4 16 13 21 21 13 21 -2 0 -10 -8 -17
-17z"/>
<path d="M8662 8260 c0 -14 2 -19 5 -12 2 6 2 18 0 25 -3 6 -5 1 -5 -13z"/>
<path d="M7974 8228 l-19 -23 23 19 c21 18 27 26 19 26 -2 0 -12 -10 -23 -22z"/>
<path d="M8651 8194 c0 -11 3 -14 6 -6 3 7 2 16 -1 19 -3 4 -6 -2 -5 -13z"/>
<path d="M8641 8144 c0 -11 3 -14 6 -6 3 7 2 16 -1 19 -3 4 -6 -2 -5 -13z"/>
<path d="M7739 7993 l-24 -28 28 24 c15 14 27 26 27 28 0 8 -8 1 -31 -24z"/>
<path d="M7674 7938 l-19 -23 23 19 c21 18 27 26 19 26 -2 0 -12 -10 -23 -22z"/>
<path d="M7619 7893 c-13 -16 -12 -17 4 -4 9 7 17 15 17 17 0 8 -8 3 -21 -13z"/>
<path d="M6770 7430 c-8 -5 -10 -10 -5 -10 6 0 17 5 25 10 8 5 11 10 5 10 -5
0 -17 -5 -25 -10z"/>
<path d="M8249 7313 c-13 -16 -12 -17 4 -4 9 7 17 15 17 17 0 8 -8 3 -21 -13z"/>
<path d="M8499 7263 c-13 -16 -12 -17 4 -4 9 7 17 15 17 17 0 8 -8 3 -21 -13z"/>
<path d="M6350 7260 c-8 -5 -10 -10 -5 -10 6 0 17 5 25 10 8 5 11 10 5 10 -5
0 -17 -5 -25 -10z"/>
<path d="M8199 7253 c-13 -16 -12 -17 4 -4 9 7 17 15 17 17 0 8 -8 3 -21 -13z"/>
<path d="M6280 7230 c-8 -5 -10 -10 -5 -10 6 0 17 5 25 10 8 5 11 10 5 10 -5
0 -17 -5 -25 -10z"/>
<path d="M8469 7223 c-13 -16 -12 -17 4 -4 9 7 17 15 17 17 0 8 -8 3 -21 -13z"/>
<path d="M8542 7210 c0 -14 2 -19 5 -12 2 6 2 18 0 25 -3 6 -5 1 -5 -13z"/>
<path d="M6230 7210 c-8 -5 -10 -10 -5 -10 6 0 17 5 25 10 8 5 11 10 5 10 -5
0 -17 -5 -25 -10z"/>
<path d="M8104 7148 l-29 -33 33 29 c30 28 37 36 29 36 -2 0 -16 -15 -33 -32z"/>
<path d="M8399 7143 l-34 -38 38 34 c34 33 42 41 34 41 -2 0 -19 -17 -38 -37z"/>
<path d="M8532 7160 c0 -14 2 -19 5 -12 2 6 2 18 0 25 -3 6 -5 1 -5 -13z"/>
<path d="M6070 7140 c-8 -5 -10 -10 -5 -10 6 0 17 5 25 10 8 5 11 10 5 10 -5
0 -17 -5 -25 -10z"/>
<path d="M8511 7074 c0 -11 3 -14 6 -6 3 7 2 16 -1 19 -3 4 -6 -2 -5 -13z"/>
<path d="M4420 7023 c-43 -46 -44 -47 -4 -10 22 20 43 35 45 32 3 -3 6 2 6 10
0 8 -1 15 -2 15 0 0 -21 -21 -45 -47z"/>
<path d="M7989 7043 l-24 -28 28 24 c15 14 27 26 27 28 0 8 -8 1 -31 -24z"/>
<path d="M5840 7035 c-14 -8 -20 -14 -15 -14 6 0 21 6 35 14 14 8 21 14 15 14
-5 0 -21 -6 -35 -14z"/>
<path d="M8265 7008 l-40 -43 43 40 c39 36 47 45 39 45 -2 0 -21 -19 -42 -42z"/>
<path d="M8501 7034 c0 -11 3 -14 6 -6 3 7 2 16 -1 19 -3 4 -6 -2 -5 -13z"/>
<path d="M5770 7000 c-9 -6 -10 -10 -3 -10 6 0 15 5 18 10 8 12 4 12 -15 0z"/>
<path d="M7929 6993 c-13 -16 -12 -17 4 -4 9 7 17 15 17 17 0 8 -8 3 -21 -13z"/>
<path d="M8491 6994 c0 -11 3 -14 6 -6 3 7 2 16 -1 19 -3 4 -6 -2 -5 -13z"/>
<path d="M4334 6948 l-19 -23 23 19 c12 11 22 21 22 23 0 8 -8 2 -26 -19z"/>
<path d="M5690 6960 c-9 -6 -10 -10 -3 -10 6 0 15 5 18 10 8 12 4 12 -15 0z"/>
<path d="M8194 6948 l-19 -23 23 19 c21 18 27 26 19 26 -2 0 -12 -10 -23 -22z"/>
<path d="M5608 6919 c-21 -11 -38 -22 -38 -24 0 -3 18 4 40 15 22 11 40 23 40
25 0 7 0 7 -42 -16z"/>
<path d="M8144 6908 l-19 -23 23 19 c21 18 27 26 19 26 -2 0 -12 -10 -23 -22z"/>
<path d="M4224 6874 c-18 -14 -18 -15 4 -4 12 6 22 13 22 15 0 8 -5 6 -26 -11z"/>
<path d="M8099 6873 c-13 -16 -12 -17 4 -4 16 13 21 21 13 21 -2 0 -10 -8 -17
-17z"/>
<path d="M4396 6855 c-9 -26 -7 -32 5 -12 6 10 9 21 6 23 -2 3 -7 -2 -11 -11z"/>
<path d="M2868 6853 c12 -2 30 -2 40 0 9 3 -1 5 -23 4 -22 0 -30 -2 -17 -4z"/>
<path d="M3108 6853 c12 -2 32 -2 45 0 12 2 2 4 -23 4 -25 0 -35 -2 -22 -4z"/>
<path d="M8059 6843 c-13 -16 -12 -17 4 -4 9 7 17 15 17 17 0 8 -8 3 -21 -13z"/>
<path d="M2808 6843 c7 -3 16 -2 19 1 4 3 -2 6 -13 5 -11 0 -14 -3 -6 -6z"/>
<path d="M3203 6843 c9 -2 23 -2 30 0 6 3 -1 5 -18 5 -16 0 -22 -2 -12 -5z"/>
<path d="M4130 6830 c-8 -5 -10 -10 -5 -10 6 0 17 5 25 10 8 5 11 10 5 10 -5
0 -17 -5 -25 -10z"/>
<path d="M5414 6804 c-18 -14 -18 -15 4 -4 12 6 22 13 22 15 0 8 -5 6 -26 -11z"/>
<path d="M7628 6799 c-21 -11 -38 -22 -38 -24 0 -3 18 4 40 15 22 11 40 23 40
25 0 7 0 7 -42 -16z"/>
<path d="M3428 6803 c7 -3 16 -2 19 1 4 3 -2 6 -13 5 -11 0 -14 -3 -6 -6z"/>
<path d="M3478 6793 c7 -3 16 -2 19 1 4 3 -2 6 -13 5 -11 0 -14 -3 -6 -6z"/>
<path d="M4354 6759 c-45 -101 -131 -202 -216 -256 -66 -41 -76 -52 -20 -24
55 28 127 95 176 165 46 65 90 145 83 152 -2 2 -12 -14 -23 -37z"/>
<path d="M8392 6735 c-17 -36 -30 -65 -27 -65 7 0 67 121 63 126 -2 2 -18 -26
-36 -61z"/>
<path d="M5364 6774 c-18 -14 -18 -15 4 -4 12 6 22 13 22 15 0 8 -5 6 -26 -11z"/>
<path d="M3593 6773 c9 -2 25 -2 35 0 9 3 1 5 -18 5 -19 0 -27 -2 -17 -5z"/>
<path d="M3933 6773 c9 -2 23 -2 30 0 6 3 -1 5 -18 5 -16 0 -22 -2 -12 -5z"/>
<path d="M3688 6763 c12 -2 32 -2 45 0 12 2 2 4 -23 4 -25 0 -35 -2 -22 -4z"/>
<path d="M3838 6763 c12 -2 32 -2 45 0 12 2 2 4 -23 4 -25 0 -35 -2 -22 -4z"/>
<path d="M5319 6743 c-13 -16 -12 -17 4 -4 9 7 17 15 17 17 0 8 -8 3 -21 -13z"/>
<path d="M7894 6734 c-18 -14 -18 -15 4 -4 12 6 22 13 22 15 0 8 -5 6 -26 -11z"/>
<path d="M7844 6704 c-18 -14 -18 -15 4 -4 12 6 22 13 22 15 0 8 -5 6 -26 -11z"/>
<path d="M5249 6693 c-13 -16 -12 -17 4 -4 16 13 21 21 13 21 -2 0 -10 -8 -17
-17z"/>
<path d="M7420 6695 c-14 -8 -20 -14 -15 -14 6 0 21 6 35 14 14 8 21 14 15 14
-5 0 -21 -6 -35 -14z"/>
<path d="M2409 6673 c-13 -16 -12 -17 4 -4 9 7 17 15 17 17 0 8 -8 3 -21 -13z"/>
<path d="M5199 6653 l-24 -28 28 24 c15 14 27 26 27 28 0 8 -8 1 -31 -24z"/>
<path d="M2349 6623 l-24 -28 28 24 c25 23 32 31 24 31 -2 0 -14 -12 -28 -27z"/>
<path d="M7620 6585 c-58 -30 -102 -54 -97 -54 10 -1 207 98 207 104 0 7 6 10
-110 -50z"/>
<path d="M8334 6628 c-4 -7 -14 -24 -22 -38 -14 -24 -13 -24 3 -5 20 24 37 55
31 55 -3 0 -8 -6 -12 -12z"/>
<path d="M5070 6533 l-85 -88 88 85 c81 79 92 90 84 90 -1 0 -41 -39 -87 -87z"/>
<path d="M2289 6553 c-13 -16 -12 -17 4 -4 9 7 17 15 17 17 0 8 -8 3 -21 -13z"/>
<path d="M8279 6543 c-13 -16 -12 -17 4 -4 9 7 17 15 17 17 0 8 -8 3 -21 -13z"/>
<path d="M8249 6503 c-13 -16 -12 -17 4 -4 9 7 17 15 17 17 0 8 -8 3 -21 -13z"/>
<path d="M7430 6495 c-14 -8 -20 -14 -15 -14 6 0 21 6 35 14 14 8 21 14 15 14
-5 0 -21 -6 -35 -14z"/>
<path d="M7360 6465 c-14 -8 -20 -14 -15 -14 6 0 21 6 35 14 14 8 21 14 15 14
-5 0 -21 -6 -35 -14z"/>
<path d="M8214 6458 l-19 -23 23 19 c21 18 27 26 19 26 -2 0 -12 -10 -23 -22z"/>
<path d="M2963 6453 c20 -2 54 -2 75 0 20 2 3 4 -38 4 -41 0 -58 -2 -37 -4z"/>
<path d="M3995 6434 c-33 -14 -46 -22 -30 -18 31 6 118 43 100 42 -5 0 -37
-11 -70 -24z"/>
<path d="M2848 6443 c6 -2 18 -2 25 0 6 3 1 5 -13 5 -14 0 -19 -2 -12 -5z"/>
<path d="M3138 6443 c12 -2 32 -2 45 0 12 2 2 4 -23 4 -25 0 -35 -2 -22 -4z"/>
<path d="M7300 6440 c-8 -5 -10 -10 -5 -10 6 0 17 5 25 10 8 5 11 10 5 10 -5
0 -17 -5 -25 -10z"/>
<path d="M2798 6433 c7 -3 16 -2 19 1 4 3 -2 6 -13 5 -11 0 -14 -3 -6 -6z"/>
<path d="M3233 6433 c9 -2 23 -2 30 0 6 3 -1 5 -18 5 -16 0 -22 -2 -12 -5z"/>
<path d="M6730 6430 c-8 -5 -10 -10 -5 -10 6 0 17 5 25 10 8 5 11 10 5 10 -5
0 -17 -5 -25 -10z"/>
<path d="M3303 6423 c9 -2 23 -2 30 0 6 3 -1 5 -18 5 -16 0 -22 -2 -12 -5z"/>
<path d="M4954 6408 l-19 -23 23 19 c21 18 27 26 19 26 -2 0 -12 -10 -23 -22z"/>
<path d="M7250 6420 c-8 -5 -10 -10 -5 -10 6 0 17 5 25 10 8 5 11 10 5 10 -5
0 -17 -5 -25 -10z"/>
<path d="M3378 6413 c6 -2 18 -2 25 0 6 3 1 5 -13 5 -14 0 -19 -2 -12 -5z"/>
<path d="M6670 6410 c-18 -12 -2 -12 25 0 13 6 15 9 5 9 -8 0 -22 -4 -30 -9z"/>
<path d="M8110 6345 c-41 -41 -72 -75 -69 -75 2 0 38 34 79 75 41 41 72 75 69
75 -2 0 -38 -34 -79 -75z"/>
<path d="M3448 6403 c6 -2 18 -2 25 0 6 3 1 5 -13 5 -14 0 -19 -2 -12 -5z"/>
<path d="M3898 6403 c6 -2 18 -2 25 0 6 3 1 5 -13 5 -14 0 -19 -2 -12 -5z"/>
<path d="M3523 6393 c9 -2 25 -2 35 0 9 3 1 5 -18 5 -19 0 -27 -2 -17 -5z"/>
<path d="M3833 6393 c9 -2 23 -2 30 0 6 3 -1 5 -18 5 -16 0 -22 -2 -12 -5z"/>
<path d="M6582 6383 c-24 -8 -41 -17 -39 -19 4 -5 97 26 97 32 0 6 -11 4 -58
-13z"/>
<path d="M7170 6390 c-8 -5 -10 -10 -5 -10 6 0 17 5 25 10 8 5 11 10 5 10 -5
0 -17 -5 -25 -10z"/>
<path d="M3653 6383 c26 -2 68 -2 95 0 26 2 4 3 -48 3 -52 0 -74 -1 -47 -3z"/>
<path d="M7077 6358 c-32 -11 -56 -22 -54 -24 4 -5 127 36 127 42 0 6 -11 4
-73 -18z"/>
<path d="M4909 6353 c-13 -16 -12 -17 4 -4 16 13 21 21 13 21 -2 0 -10 -8 -17
-17z"/>
<path d="M6490 6350 c-18 -12 -2 -12 25 0 13 6 15 9 5 9 -8 0 -22 -4 -30 -9z"/>
<path d="M6430 6330 c-18 -12 -2 -12 25 0 13 6 15 9 5 9 -8 0 -22 -4 -30 -9z"/>
<path d="M4870 6300 c-12 -16 -19 -30 -16 -30 2 0 14 14 26 30 12 17 19 30 16
30 -2 0 -14 -13 -26 -30z"/>
<path d="M6935 6310 c-27 -10 -43 -18 -35 -18 8 0 38 8 65 18 28 10 43 18 35
18 -8 0 -37 -8 -65 -18z"/>
<path d="M2494 6278 l-29 -33 33 29 c17 17 32 31 32 33 0 8 -8 1 -36 -29z"/>
<path d="M6280 6280 c-18 -12 -2 -12 25 0 13 6 15 9 5 9 -8 0 -22 -4 -30 -9z"/>
<path d="M6798 6263 c7 -3 16 -2 19 1 4 3 -2 6 -13 5 -11 0 -14 -3 -6 -6z"/>
<path d="M1904 6244 c-18 -14 -18 -14 6 -3 31 14 36 19 24 19 -6 0 -19 -7 -30
-16z"/>
<path d="M6200 6250 c-8 -5 -10 -10 -5 -10 6 0 17 5 25 10 8 5 11 10 5 10 -5
0 -17 -5 -25 -10z"/>
<path d="M7994 6238 l-19 -23 23 19 c21 18 27 26 19 26 -2 0 -12 -10 -23 -22z"/>
<path d="M6685 6235 c-39 -14 -40 -14 -5 -8 41 7 82 22 60 22 -8 0 -33 -7 -55
-14z"/>
<path d="M2434 6218 l-19 -23 23 19 c21 18 27 26 19 26 -2 0 -12 -10 -23 -22z"/>
<path d="M6140 6230 c-18 -12 -2 -12 25 0 13 6 15 9 5 9 -8 0 -22 -4 -30 -9z"/>
<path d="M6090 6210 c-8 -5 -10 -10 -5 -10 6 0 17 5 25 10 8 5 11 10 5 10 -5
0 -17 -5 -25 -10z"/>
<path d="M6557 6203 c-32 -9 -56 -17 -54 -20 5 -4 129 26 136 33 8 7 -23 2
-82 -13z"/>
<path d="M7944 6198 l-19 -23 23 19 c21 18 27 26 19 26 -2 0 -12 -10 -23 -22z"/>
<path d="M2288 6183 c12 -2 30 -2 40 0 9 3 -1 5 -23 4 -22 0 -30 -2 -17 -4z"/>
<path d="M6010 6180 c-8 -5 -10 -10 -5 -10 6 0 17 5 25 10 8 5 11 10 5 10 -5
0 -17 -5 -25 -10z"/>
<path d="M2198 6173 c7 -3 16 -2 19 1 4 3 -2 6 -13 5 -11 0 -14 -3 -6 -6z"/>
<path d="M6430 6165 c-19 -7 -28 -13 -20 -13 8 0 31 6 50 13 19 7 28 13 20 13
-8 0 -31 -6 -50 -13z"/>
<path d="M7899 6163 c-13 -16 -12 -17 4 -4 9 7 17 15 17 17 0 8 -8 3 -21 -13z"/>
<path d="M5950 6155 c-14 -8 -20 -14 -15 -14 6 0 21 6 35 14 14 8 21 14 15 14
-5 0 -21 -6 -35 -14z"/>
<path d="M5440 6150 c0 -5 -8 -10 -18 -10 -27 0 -62 -46 -62 -81 0 -20 -4 -29
-12 -26 -7 2 -12 18 -12 35 2 28 0 30 -13 16 -13 -12 -13 -20 -4 -40 6 -14 11
-29 11 -34 0 -13 -37 -13 -45 0 -11 18 -33 10 -39 -14 -3 -14 -15 -27 -25 -31
-10 -3 -21 -15 -24 -25 -3 -11 -12 -20 -21 -20 -9 0 -16 -3 -16 -8 0 -4 -25
-7 -55 -7 -58 0 -60 -1 -110 -77 -14 -21 -25 -45 -25 -54 0 -10 -3 -14 -7 -11
-6 7 -32 -21 -33 -35 0 -13 18 -9 23 5 2 6 2 1 0 -13 -5 -31 -45 -120 -55
-120 -18 0 -16 21 3 39 12 11 18 25 14 31 -12 20 -40 -32 -41 -78 -2 -47 -11
-64 -23 -43 -6 9 -11 10 -15 2 -4 -6 -4 -11 1 -11 4 0 0 -5 -10 -11 -13 -8
-15 -14 -7 -29 15 -28 12 -38 -5 -16 -11 14 -15 16 -15 5 0 -8 -11 -36 -25
-64 -13 -27 -25 -57 -25 -66 0 -9 -3 -19 -7 -23 -19 -18 -85 -261 -92 -341
l-2 -20 -9 20 c-7 18 -9 17 -20 -12 -6 -17 -17 -34 -25 -37 -8 -3 -11 -13 -8
-27 4 -15 3 -20 -5 -15 -8 5 -10 1 -5 -10 4 -12 3 -15 -5 -10 -8 5 -10 2 -5
-9 4 -13 8 -14 14 -4 15 25 21 0 14 -58 -6 -44 -9 -53 -16 -38 l-8 20 -2 -20
c-1 -11 -3 -31 -4 -45 -4 -50 -7 -55 -15 -30 l-8 25 -1 -28 c-1 -16 5 -30 14
-33 9 -4 15 -20 15 -43 0 -27 3 -32 10 -21 8 13 10 12 10 -2 0 -10 -4 -18 -8
-18 -5 0 -10 -23 -11 -52 -1 -29 -7 -55 -13 -59 -8 -5 -6 -26 6 -75 30 -122
47 -174 55 -170 12 8 38 -29 46 -64 5 -25 9 -29 17 -19 6 10 7 6 2 -11 -9 -34
-13 -37 -25 -20 -17 24 0 -28 28 -85 13 -27 21 -43 19 -34 -2 9 0 21 5 26 5 5
5 43 0 93 -20 202 2 484 55 692 13 55 21 104 18 111 -4 7 -3 9 1 4 5 -4 21 25
35 66 32 87 100 234 138 297 15 25 27 54 27 65 0 11 6 20 14 20 8 0 16 6 19
14 3 9 0 11 -8 6 -9 -5 -11 -4 -6 4 4 6 11 9 16 6 9 -6 43 43 43 62 0 7 4 10
8 7 9 -5 60 66 54 76 -3 4 5 16 18 26 22 19 22 19 7 -1 -10 -14 -7 -13 8 3 12
13 20 28 16 33 -3 5 0 8 8 7 7 -2 12 3 10 10 -1 8 1 11 6 8 5 -3 24 11 43 31
19 19 70 67 114 106 44 39 79 75 78 79 -2 4 1 7 5 6 11 -4 194 123 188 130 -3
3 0 12 7 21 11 14 10 14 -5 2 -10 -7 -15 -17 -12 -22 3 -5 -3 -6 -12 -2 -10 3
-15 2 -12 -3 3 -5 -4 -17 -17 -26 -19 -15 -24 -15 -29 -3 -3 8 0 17 6 21 7 5
8 2 3 -6 -5 -8 -3 -11 6 -8 8 3 13 11 12 17 -2 6 3 11 10 11 8 0 7 4 -3 11
-12 8 -9 9 9 4 21 -6 23 -4 19 13 -4 15 -2 19 8 15 20 -7 17 7 -3 23 -16 12
-16 13 -1 14 9 0 18 -5 20 -11 2 -7 12 -7 30 0 21 8 29 7 40 -6 11 -14 10 -15
-9 -9 -13 4 -31 2 -40 -4 -15 -9 -13 -10 12 -5 l30 6 -30 -26 -30 -26 43 27
c45 28 51 39 28 47 -9 4 -12 14 -9 26 3 12 1 21 -6 21 -10 0 -15 -14 -12 -32
0 -5 -11 -8 -26 -7 -25 0 -25 1 -8 8 14 6 6 8 -27 7 -27 0 -48 -4 -48 -8 0 -5
-13 -8 -30 -8 -20 0 -30 5 -30 15 0 8 9 15 20 15 16 0 20 7 20 35 0 24 -5 35
-15 35 -8 0 -15 -9 -15 -20 0 -11 -5 -20 -10 -20 -6 0 -18 9 -27 20 -18 21
-43 27 -43 10z m24 -120 c-22 -9 -29 -6 -20 9 4 6 14 7 23 4 15 -6 14 -7 -3
-13z m78 -100 c4 -3 -1 -11 -12 -18 -12 -7 -21 -8 -25 -2 -4 6 -1 9 7 8 8 -2
12 4 10 17 -2 12 0 16 5 10 4 -5 11 -12 15 -15z m-70 -27 c-6 -2 -9 -9 -6 -14
3 -6 12 -5 22 3 15 12 16 11 3 -5 -10 -13 -17 -15 -27 -6 -15 12 -10 29 9 28
9 0 8 -2 -1 -6z m-392 -23 c0 -5 -4 -10 -10 -10 -5 0 -10 5 -10 10 0 6 5 10
10 10 6 0 10 -4 10 -10z m240 -54 c0 -2 -7 -7 -16 -10 -8 -3 -12 -2 -9 4 6 10
25 14 25 6z m32 -51 c-17 -14 -33 -25 -36 -25 -4 0 5 11 20 25 15 14 31 25 36
25 5 0 -4 -11 -20 -25z m-48 -46 c-3 -5 -10 -7 -15 -3 -5 3 -7 10 -3 15 3 5
10 7 15 3 5 -3 7 -10 3 -15z m-254 -293 c0 -2 -8 -10 -17 -17 -16 -13 -17 -12
-4 4 13 16 21 21 21 13z m-429 -681 l-9 -60 -1 62 c-1 63 11 120 17 78 1 -11
-2 -47 -7 -80z m-21 -21 c0 -8 -4 -12 -10 -9 -5 3 -10 10 -10 16 0 5 5 9 10 9
6 0 10 -7 10 -16z m25 -170 c3 -72 2 -79 -5 -39 -10 58 -12 141 -5 133 3 -3 8
-45 10 -94z m74 -522 c0 -24 -1 -25 -9 -7 -12 28 -12 47 0 40 6 -3 10 -18 9
-33z"/>
<path d="M1734 6118 l-29 -33 33 29 c17 17 32 31 32 33 0 8 -8 1 -36 -29z"/>
<path d="M5797 6139 c7 -7 15 -10 18 -7 3 3 -2 9 -12 12 -14 6 -15 5 -6 -5z"/>
<path d="M5905 6140 c-4 -6 -14 -9 -22 -6 -8 3 -12 2 -9 -2 7 -12 -63 -44 -76
-36 -7 4 -8 2 -4 -4 10 -16 -6 -15 -24 1 -12 10 -12 9 -2 -4 10 -13 10 -18 -2
-22 -7 -3 -19 0 -25 6 -8 8 -14 8 -23 -2 -11 -10 -9 -11 6 -5 15 6 18 4 13 -9
-4 -12 20 -4 86 29 102 51 103 52 95 60 -3 3 -9 0 -13 -6z"/>
<path d="M6293 6120 c-148 -52 -303 -121 -296 -132 3 -6 1 -8 -5 -5 -13 9 -44
-2 -37 -13 3 -5 1 -11 -5 -15 -5 -3 -10 -2 -10 4 0 7 -8 7 -22 2 -13 -5 -22
-14 -21 -20 2 -6 -4 -8 -14 -4 -12 5 -14 3 -8 -7 5 -9 4 -11 -3 -6 -14 9 -93
-34 -86 -45 3 -5 -1 -6 -8 -4 -17 7 -183 -103 -306 -203 -248 -200 -451 -490
-541 -772 -52 -163 -101 -380 -111 -495 -24 -245 33 -589 147 -894 43 -117
122 -281 134 -281 12 0 12 2 -15 94 -36 120 -46 180 -54 322 -22 392 79 692
320 950 67 71 190 171 273 222 152 92 474 181 847 233 101 14 154 25 142 30
-10 4 -35 6 -54 3 -29 -3 -31 -2 -10 5 14 4 24 13 23 19 -2 7 1 12 6 12 5 0
11 10 15 23 3 14 18 27 40 35 19 7 37 19 40 27 3 8 16 15 30 15 14 0 30 10 40
24 11 18 30 27 68 34 41 8 45 10 16 9 -20 -1 -40 2 -44 6 -4 4 8 7 28 7 35 0
103 19 95 26 -2 3 -62 -4 -133 -15 -170 -26 -425 -54 -432 -47 -3 3 0 6 7 6 7
0 10 4 7 8 -3 5 -6 25 -8 45 -1 22 -7 37 -15 37 -16 0 -17 12 -1 28 9 9 9 12
0 12 -19 0 -14 28 9 43 23 17 15 26 -34 34 -55 10 -99 6 -202 -20 -198 -51
-350 -111 -454 -181 -60 -41 -66 -34 -13 16 86 84 343 216 510 263 34 10 59
21 57 25 -3 5 5 6 17 2 16 -4 19 -2 13 8 -5 9 -4 11 4 6 6 -4 43 1 82 11 70
18 72 29 4 33 -23 2 -18 4 19 11 52 8 83 26 44 25 -21 -1 -23 4 -26 47 -3 44
-1 48 16 43 14 -5 29 2 50 23 16 17 41 33 56 37 14 3 28 10 31 14 3 5 15 6 28
3 16 -3 18 -2 8 5 -10 7 0 12 38 17 28 4 51 10 51 14 0 9 150 61 176 61 15 0
16 2 5 9 -8 5 -21 7 -30 4 -14 -4 -14 -3 -1 5 8 5 32 12 53 16 20 4 37 11 37
17 0 11 20 15 -305 -68 -393 -101 -400 -103 -408 -103 -5 0 -1 7 8 16 25 26
15 58 -20 65 -24 5 -27 7 -12 13 21 10 23 26 2 26 -8 0 -15 9 -15 20 0 15 7
20 26 20 15 0 42 10 62 22 33 20 34 22 13 29 -30 12 -28 47 3 55 14 3 30 3 36
-1 6 -3 9 -1 8 5 -2 7 22 20 52 30 43 15 58 16 70 7 13 -11 13 -10 1 6 -17 21
-10 22 -108 -13z m-93 -64 c0 -15 -36 -32 -59 -27 -7 1 -10 -2 -7 -8 4 -5 1
-13 -5 -17 -8 -4 -9 -3 -5 4 11 18 -15 14 -38 -5 -21 -18 -21 -18 -2 5 11 12
25 22 33 22 8 0 11 4 8 10 -3 6 1 7 9 4 9 -3 16 -1 16 4 0 9 16 17 43 21 4 0
7 -5 7 -13z m7 -42 c-3 -3 -12 -4 -19 -1 -8 3 -5 6 6 6 11 1 17 -2 13 -5z m90
-350 c-3 -3 -12 -4 -19 -1 -8 3 -5 6 6 6 11 1 17 -2 13 -5z m70 0 c-3 -3 -12
-4 -19 -1 -8 3 -5 6 6 6 11 1 17 -2 13 -5z m-18 -38 c-2 -2 -20 -6 -39 -10
-25 -4 -31 -3 -20 4 14 9 69 15 59 6z m-12 -172 c-3 -3 -12 -4 -19 -1 -8 3 -5
6 6 6 11 1 17 -2 13 -5z m213 -344 c-8 -5 -24 -9 -35 -9 -16 1 -16 2 5 9 35
11 48 11 30 0z m-33 -36 c-3 -3 -12 -4 -19 -1 -8 3 -5 6 6 6 11 1 17 -2 13 -5z"/>
<path d="M6155 6040 c-3 -6 1 -7 9 -4 18 7 21 14 7 14 -6 0 -13 -4 -16 -10z"/>
<path d="M7812 6106 c-61 -42 -92 -68 -62 -51 32 18 130 86 130 90 0 7 0 7
-68 -39z"/>
<path d="M4750 6110 c-6 -11 -8 -20 -6 -20 3 0 10 9 16 20 6 11 8 20 6 20 -3
0 -10 -9 -16 -20z"/>
<path d="M7225 6100 c-19 -8 -19 -9 2 -9 12 -1 25 4 28 9 7 12 -2 12 -30 0z"/>
<path d="M2313 6063 c26 -2 67 -2 90 0 23 2 2 3 -48 3 -49 0 -68 -1 -42 -3z"/>
<path d="M1669 6043 c-13 -16 -12 -17 4 -4 9 7 17 15 17 17 0 8 -8 3 -21 -13z"/>
<path d="M2178 6053 c6 -2 18 -2 25 0 6 3 1 5 -13 5 -14 0 -19 -2 -12 -5z"/>
<path d="M2498 6053 c7 -3 16 -2 19 1 4 3 -2 6 -13 5 -11 0 -14 -3 -6 -6z"/>
<path d="M7030 6041 c-36 -10 -72 -20 -80 -23 -8 -4 -22 -9 -30 -11 -10 -4 -7
-6 7 -6 12 -1 24 3 27 8 3 5 26 12 51 16 48 7 131 34 105 33 -8 0 -44 -7 -80
-17z"/>
<path d="M8059 6033 c-13 -16 -12 -17 4 -4 9 7 17 15 17 17 0 8 -8 3 -21 -13z"/>
<path d="M2078 6033 c7 -3 16 -2 19 1 4 3 -2 6 -13 5 -11 0 -14 -3 -6 -6z"/>
<path d="M6320 6010 c0 -5 5 -10 10 -10 6 0 10 5 10 10 0 6 -4 10 -10 10 -5 0
-10 -4 -10 -10z"/>
<path d="M7654 6004 c-18 -14 -18 -15 4 -4 12 6 22 13 22 15 0 8 -5 6 -26 -11z"/>
<path d="M6268 6003 c7 -3 16 -2 19 1 4 3 -2 6 -13 5 -11 0 -14 -3 -6 -6z"/>
<path d="M7610 5980 c-9 -6 -10 -10 -3 -10 6 0 15 5 18 10 8 12 4 12 -15 0z"/>
<path d="M4672 5955 c-17 -37 -14 -45 4 -12 9 16 14 31 11 33 -2 2 -9 -7 -15
-21z"/>
<path d="M6195 5960 c22 -4 31 -8 20 -9 -16 -1 -17 -3 -5 -10 17 -12 30 -5 30
15 0 10 -12 14 -42 13 l-43 -2 40 -7z"/>
<path d="M7505 5934 c-27 -13 -39 -21 -25 -18 29 7 100 43 85 43 -5 0 -32 -11
-60 -25z"/>
<path d="M7904 5934 c-18 -14 -18 -15 4 -4 12 6 22 13 22 15 0 8 -5 6 -26 -11z"/>
<path d="M1664 5918 l-19 -23 23 19 c12 11 22 21 22 23 0 8 -8 2 -26 -19z"/>
<path d="M1744 5904 c-18 -14 -18 -14 6 -3 31 14 36 19 24 19 -6 0 -19 -7 -30
-16z"/>
<path d="M4646 5895 c-9 -26 -7 -32 5 -12 6 10 9 21 6 23 -2 3 -7 -2 -11 -11z"/>
<path d="M6350 5900 c8 -5 20 -10 25 -10 6 0 3 5 -5 10 -8 5 -19 10 -25 10 -5
0 -3 -5 5 -10z"/>
<path d="M7392 5893 c-24 -8 -41 -17 -39 -19 4 -5 97 26 97 32 0 6 -11 4 -58
-13z"/>
<path d="M7808 5884 c-38 -20 -36 -28 2 -9 17 9 30 18 30 20 0 7 -1 6 -32 -11z"/>
<path d="M7993 5868 c-20 -26 -26 -41 -15 -34 12 7 36 46 29 46 -3 0 -9 -6
-14 -12z"/>
<path d="M7740 5850 c-8 -5 -10 -10 -5 -10 6 0 17 5 25 10 8 5 11 10 5 10 -5
0 -17 -5 -25 -10z"/>
<path d="M7235 5840 c-13 -5 -14 -9 -5 -9 8 0 24 4 35 9 13 5 14 9 5 9 -8 0
-24 -4 -35 -9z"/>
<path d="M1883 5823 c32 -2 81 -2 110 0 29 2 3 3 -58 3 -60 0 -84 -1 -52 -3z"/>
<path d="M7188 5823 c7 -3 16 -2 19 1 4 3 -2 6 -13 5 -11 0 -14 -3 -6 -6z"/>
<path d="M1748 5813 c6 -2 18 -2 25 0 6 3 1 5 -13 5 -14 0 -19 -2 -12 -5z"/>
<path d="M2088 5813 c6 -2 18 -2 25 0 6 3 1 5 -13 5 -14 0 -19 -2 -12 -5z"/>
<path d="M7650 5810 c-8 -5 -10 -10 -5 -10 6 0 17 5 25 10 8 5 11 10 5 10 -5
0 -17 -5 -25 -10z"/>
<path d="M1688 5803 c6 -2 18 -2 25 0 6 3 1 5 -13 5 -14 0 -19 -2 -12 -5z"/>
<path d="M2138 5803 c6 -2 18 -2 25 0 6 3 1 5 -13 5 -14 0 -19 -2 -12 -5z"/>
<path d="M7118 5803 c7 -3 16 -2 19 1 4 3 -2 6 -13 5 -11 0 -14 -3 -6 -6z"/>
<path d="M2188 5793 c7 -3 16 -2 19 1 4 3 -2 6 -13 5 -11 0 -14 -3 -6 -6z"/>
<path d="M7078 5793 c7 -3 16 -2 19 1 4 3 -2 6 -13 5 -11 0 -14 -3 -6 -6z"/>
<path d="M1547 5779 c7 -7 15 -10 18 -7 3 3 -2 9 -12 12 -14 6 -15 5 -6 -5z"/>
<path d="M1588 5783 c7 -3 16 -2 19 1 4 3 -2 6 -13 5 -11 0 -14 -3 -6 -6z"/>
<path d="M2265 5770 c27 -12 43 -12 25 0 -8 5 -22 9 -30 9 -10 0 -8 -3 5 -9z"/>
<path d="M3150 5776 c0 -2 8 -10 18 -17 15 -13 16 -12 3 4 -13 16 -21 21 -21
13z"/>
<path d="M6975 5770 c-25 -11 1 -11 35 0 20 6 21 8 5 8 -11 0 -29 -3 -40 -8z"/>
<path d="M2330 5745 c14 -8 30 -14 35 -14 6 0 -1 6 -15 14 -14 8 -29 14 -35
14 -5 0 1 -6 15 -14z"/>
<path d="M6845 5740 c-38 -10 -65 -18 -58 -19 14 -1 146 29 152 35 8 8 -24 2
-94 -16z"/>
<path d="M7450 5730 c-8 -5 -10 -10 -5 -10 6 0 17 5 25 10 8 5 11 10 5 10 -5
0 -17 -5 -25 -10z"/>
<path d="M7899 5723 c-13 -16 -12 -17 4 -4 9 7 17 15 17 17 0 8 -8 3 -21 -13z"/>
<path d="M3285 5650 c44 -44 82 -80 85 -80 2 0 -31 36 -75 80 -44 44 -82 80
-85 80 -2 0 31 -36 75 -80z"/>
<path d="M2405 5713 c6 -6 28 -20 50 -32 22 -13 31 -15 20 -6 -22 18 -86 53
-70 38z"/>
<path d="M6710 5710 c-20 -6 -21 -8 -5 -8 11 0 31 4 45 8 20 6 21 8 5 8 -11 0
-31 -4 -45 -8z"/>
<path d="M6658 5693 c7 -3 16 -2 19 1 4 3 -2 6 -13 5 -11 0 -14 -3 -6 -6z"/>
<path d="M6540 5672 c-36 -8 -60 -17 -55 -18 6 -2 44 5 85 15 41 10 66 19 55
19 -11 0 -49 -7 -85 -16z"/>
<path d="M7318 5683 c7 -3 16 -2 19 1 4 3 -2 6 -13 5 -11 0 -14 -3 -6 -6z"/>
<path d="M7859 5673 c-13 -16 -12 -17 4 -4 16 13 21 21 13 21 -2 0 -10 -8 -17
-17z"/>
<path d="M2506 5661 c-4 -5 16 -26 43 -46 64 -46 168 -159 239 -257 30 -43 59
-75 63 -72 12 7 -13 44 -26 37 -5 -4 -7 -3 -3 2 4 4 -3 15 -15 25 -19 16 -20
21 -9 44 9 20 9 25 0 20 -7 -5 -9 -2 -6 7 3 8 1 23 -4 34 -8 18 -8 18 -4 -2 4
-21 -2 -27 -21 -20 -5 1 -7 7 -5 13 1 6 -6 18 -15 25 -16 13 -17 12 -4 -4 8
-9 12 -20 9 -22 -2 -3 -32 24 -66 59 -45 45 -58 66 -50 74 8 8 6 10 -8 8 -20
-3 -111 61 -106 75 3 12 -5 11 -12 0z m284 -262 c0 -5 -4 -9 -10 -9 -5 0 -10
7 -10 16 0 8 5 12 10 9 6 -3 10 -10 10 -16z"/>
<path d="M7208 5653 c7 -3 16 -2 19 1 4 3 -2 6 -13 5 -11 0 -14 -3 -6 -6z"/>
<path d="M6395 5637 c8 -4 29 -3 47 2 32 9 31 9 -14 8 -31 -1 -42 -4 -33 -10z"/>
<path d="M7128 5633 c7 -3 16 -2 19 1 4 3 -2 6 -13 5 -11 0 -14 -3 -6 -6z"/>
<path d="M7814 5618 l-19 -23 23 19 c21 18 27 26 19 26 -2 0 -12 -10 -23 -22z"/>
<path d="M7088 5623 c7 -3 16 -2 19 1 4 3 -2 6 -13 5 -11 0 -14 -3 -6 -6z"/>
<path d="M7028 5613 c6 -2 18 -2 25 0 6 3 1 5 -13 5 -14 0 -19 -2 -12 -5z"/>
<path d="M6973 5603 c9 -2 23 -2 30 0 6 3 -1 5 -18 5 -16 0 -22 -2 -12 -5z"/>
<path d="M4855 5590 c3 -5 8 -10 11 -10 2 0 4 5 4 10 0 6 -5 10 -11 10 -5 0
-7 -4 -4 -10z"/>
<path d="M6893 5593 c9 -2 25 -2 35 0 9 3 1 5 -18 5 -19 0 -27 -2 -17 -5z"/>
<path d="M6828 5583 c6 -2 18 -2 25 0 6 3 1 5 -13 5 -14 0 -19 -2 -12 -5z"/>
<path d="M6720 5570 c-34 -7 -34 -7 -5 -8 17 0 44 4 60 8 27 7 27 8 5 8 -14
-1 -41 -4 -60 -8z"/>
<path d="M4541 5554 c0 -11 3 -14 6 -6 3 7 2 16 -1 19 -3 4 -6 -2 -5 -13z"/>
<path d="M6590 5550 c-34 -7 -34 -7 -5 -8 17 0 44 4 60 8 27 7 27 8 5 8 -14
-1 -41 -4 -60 -8z"/>
<path d="M7739 5533 c-13 -16 -12 -17 4 -4 16 13 21 21 13 21 -2 0 -10 -8 -17
-17z"/>
<path d="M2700 5527 c0 -9 5 -17 11 -17 5 0 7 -5 3 -12 -4 -7 -3 -8 5 -4 9 6
9 12 -1 24 -7 10 -14 19 -15 21 -2 2 -3 -3 -3 -12z"/>
<path d="M3390 5536 c0 -2 8 -10 18 -17 15 -13 16 -12 3 4 -13 16 -21 21 -21
13z"/>
<path d="M6503 5533 c9 -2 25 -2 35 0 9 3 1 5 -18 5 -19 0 -27 -2 -17 -5z"/>
<path d="M4531 5514 c0 -11 3 -14 6 -6 3 7 2 16 -1 19 -3 4 -6 -2 -5 -13z"/>
<path d="M6448 5523 c6 -2 18 -2 25 0 6 3 1 5 -13 5 -14 0 -19 -2 -12 -5z"/>
<path d="M6331 5508 c-46 -9 -52 -12 -36 -21 14 -7 20 -7 23 1 2 7 16 12 30
11 l27 -1 -25 -8 c-20 -7 -17 -8 18 -7 38 2 40 3 25 16 -17 12 -16 13 4 7 12
-4 24 -2 28 4 7 12 -19 11 -94 -2z"/>
<path d="M7664 5468 l-29 -33 33 29 c30 28 37 36 29 36 -2 0 -16 -15 -33 -32z"/>
<path d="M3430 5486 c0 -2 8 -10 18 -17 15 -13 16 -12 3 4 -13 16 -21 21 -21
13z"/>
<path d="M4522 5460 c0 -14 2 -19 5 -12 2 6 2 18 0 25 -3 6 -5 1 -5 -13z"/>
<path d="M7609 5423 c-13 -16 -12 -17 4 -4 9 7 17 15 17 17 0 8 -8 3 -21 -13z"/>
<path d="M4512 5410 c0 -14 2 -19 5 -12 2 6 2 18 0 25 -3 6 -5 1 -5 -13z"/>
<path d="M3490 5406 c0 -2 8 -10 18 -17 15 -13 16 -12 3 4 -13 16 -21 21 -21
13z"/>
<path d="M7569 5393 c-13 -16 -12 -17 4 -4 16 13 21 21 13 21 -2 0 -10 -8 -17
-17z"/>
<path d="M2810 5366 c0 -2 13 -18 30 -36 22 -23 27 -36 21 -48 -6 -12 1 -35
27 -79 20 -34 39 -60 44 -57 4 3 5 -3 1 -12 -5 -13 -3 -15 7 -9 8 5 11 4 6 -3
-9 -14 45 -123 57 -115 6 3 7 1 3 -5 -8 -14 88 -235 99 -225 4 5 5 2 1 -4 -7
-13 76 -237 127 -338 39 -79 170 -284 265 -415 385 -529 911 -874 1598 -1046
80 -20 148 -34 150 -31 3 3 -12 13 -33 23 -106 50 -324 225 -463 370 -224 237
-459 551 -600 806 -24 42 -48 74 -53 71 -6 -3 -7 -1 -3 5 10 16 -44 133 -57
125 -6 -4 -8 0 -4 10 5 14 -72 212 -80 204 -4 -4 42 -121 63 -157 1 -3 -2 -12
-7 -20 -9 -13 -10 -13 -8 0 3 18 -18 70 -27 70 -3 0 -4 -9 -1 -19 3 -12 0 -18
-7 -15 -6 2 -12 18 -13 34 -2 21 1 28 9 24 7 -4 8 -3 4 5 -11 17 -26 3 -26
-25 0 -13 -5 -24 -10 -24 -6 0 -9 10 -7 23 2 12 2 16 0 10 -3 -8 -21 -13 -44
-13 -30 0 -39 4 -39 17 0 15 -2 15 -14 -2 -12 -16 -16 -17 -30 -6 -9 7 -13 17
-10 22 3 5 2 8 -3 7 -4 -1 -17 3 -28 9 -26 15 -73 5 -78 -16 -4 -14 -5 -14 -6
2 0 9 -7 17 -15 17 -8 0 -17 -8 -19 -17 -4 -15 -6 -15 -12 5 -4 12 -10 22 -14
22 -3 0 -12 15 -20 33 -8 17 -24 48 -36 67 -12 19 -29 55 -39 80 -45 116 -196
420 -209 420 -5 0 -27 14 -49 32 -29 22 -54 32 -89 36 -27 2 -49 8 -49 13 0 5
-9 9 -19 9 -14 0 -22 12 -32 45 -9 30 -18 44 -26 40 -16 -5 -63 14 -63 27 0 4
-11 8 -25 8 -13 0 -39 9 -57 19 -17 11 -35 18 -40 15 -4 -3 -8 0 -8 5 0 6 -9
11 -20 11 -11 0 -20 -2 -20 -4z m60 -28 c0 -4 -4 -8 -9 -8 -6 0 -12 4 -15 8
-3 5 1 9 9 9 8 0 15 -4 15 -9z m39 -138 c1 -10 -4 -8 -12 6 -37 65 -39 69 -13
39 14 -16 25 -37 25 -45z m11 45 c14 -19 14 -19 -2 -6 -10 7 -18 18 -18 24 0
6 1 8 3 6 1 -2 9 -13 17 -24z m70 -189 c0 -6 -7 -1 -15 10 -8 10 -15 23 -15
28 0 6 7 1 15 -10 8 -10 15 -23 15 -28z m1031 -703 c-12 -20 -14 -14 -5 12 4
9 9 14 11 11 3 -2 0 -13 -6 -23z"/>
<path d="M4503 5335 c0 -22 2 -30 4 -17 2 12 2 30 0 40 -3 9 -5 -1 -4 -23z"/>
<path d="M6998 5353 c7 -3 16 -2 19 1 4 3 -2 6 -13 5 -11 0 -14 -3 -6 -6z"/>
<path d="M7494 5344 c-18 -14 -18 -15 4 -4 12 6 22 13 22 15 0 8 -5 6 -26 -11z"/>
<path d="M6928 5333 c7 -3 16 -2 19 1 4 3 -2 6 -13 5 -11 0 -14 -3 -6 -6z"/>
<path d="M7408 5299 c-21 -11 -38 -22 -38 -24 0 -3 18 4 40 15 22 11 40 23 40
25 0 7 0 7 -42 -16z"/>
<path d="M4493 5245 c0 -22 2 -30 4 -17 2 12 2 30 0 40 -3 9 -5 -1 -4 -23z"/>
<path d="M3610 5230 c6 -11 13 -20 16 -20 2 0 0 9 -6 20 -6 11 -13 20 -16 20
-2 0 0 -9 6 -20z"/>
<path d="M7170 5190 c-8 -5 -10 -10 -5 -10 6 0 17 5 25 10 8 5 11 10 5 10 -5
0 -17 -5 -25 -10z"/>
<path d="M4480 5032 c0 -77 4 -143 9 -146 4 -3 6 -29 4 -58 -3 -43 -2 -50 7
-35 7 11 9 35 6 60 -4 23 -8 102 -10 175 -2 73 -6 135 -9 139 -4 3 -7 -57 -7
-135z"/>
<path d="M7070 5160 c-20 -6 -21 -8 -5 -8 11 0 29 3 40 8 25 11 -1 11 -35 0z"/>
<path d="M7018 5143 c7 -3 16 -2 19 1 4 3 -2 6 -13 5 -11 0 -14 -3 -6 -6z"/>
<path d="M6978 5133 c7 -3 16 -2 19 1 4 3 -2 6 -13 5 -11 0 -14 -3 -6 -6z"/>
<path d="M3680 5110 c6 -11 13 -20 16 -20 2 0 0 9 -6 20 -6 11 -13 20 -16 20
-2 0 0 -9 6 -20z"/>
<path d="M6928 5123 c6 -2 18 -2 25 0 6 3 1 5 -13 5 -14 0 -19 -2 -12 -5z"/>
<path d="M6868 5113 c6 -2 18 -2 25 0 6 3 1 5 -13 5 -14 0 -19 -2 -12 -5z"/>
<path d="M6605 5100 c3 -5 11 -10 16 -10 6 0 7 5 4 10 -3 6 -11 10 -16 10 -6
0 -7 -4 -4 -10z"/>
<path d="M6813 5103 c9 -2 23 -2 30 0 6 3 -1 5 -18 5 -16 0 -22 -2 -12 -5z"/>
<path d="M6690 5090 c-27 -6 -29 -8 -10 -8 14 -1 43 3 65 7 33 7 35 9 10 9
-16 -1 -46 -4 -65 -8z"/>
<path d="M3740 5000 c11 -22 23 -40 25 -40 3 0 -4 18 -15 40 -11 22 -23 40
-25 40 -3 0 4 -18 15 -40z"/>
<path d="M4526 4885 c-3 -9 -6 -22 -5 -28 0 -7 5 -1 10 12 5 13 8 26 5 28 -2
2 -6 -3 -10 -12z"/>
<path d="M3811 4865 c0 -5 6 -21 14 -35 8 -14 14 -20 14 -15 0 6 -6 21 -14 35
-8 14 -14 21 -14 15z"/>
<path d="M3851 4780 c14 -31 19 -36 19 -24 0 6 -7 19 -16 30 -14 18 -14 18 -3
-6z"/>
<path d="M4506 4758 c-7 -29 -8 -73 0 -66 7 7 17 88 11 88 -3 0 -7 -10 -11
-22z"/>
<path d="M4541 4764 c0 -11 3 -14 6 -6 3 7 2 16 -1 19 -3 4 -6 -2 -5 -13z"/>
<path d="M3871 4735 c0 -5 8 -26 19 -45 11 -19 19 -30 19 -25 0 6 -8 26 -19
45 -11 19 -19 31 -19 25z"/>
<path d="M4512 4650 c0 -14 2 -19 5 -12 2 6 2 18 0 25 -3 6 -5 1 -5 -13z"/>
<path d="M3921 4625 c0 -5 6 -21 14 -35 8 -14 14 -20 14 -15 0 6 -6 21 -14 35
-8 14 -14 21 -14 15z"/>
<path d="M4526 4608 c-7 -28 14 -128 27 -128 12 0 -1 73 -15 81 -6 4 -7 20 -3
38 8 35 0 43 -9 9z"/>
<path d="M5436 4538 c-8 -12 -13 -25 -10 -30 3 -5 0 -7 -6 -6 -17 4 -121 -171
-170 -287 -123 -288 -140 -612 -48 -908 26 -85 121 -273 136 -270 6 2 9 -3 7
-10 -7 -16 124 -189 136 -181 5 3 9 2 8 -3 -4 -21 2 -24 19 -12 15 13 16 12 4
-3 -12 -15 -9 -23 28 -62 24 -25 47 -43 53 -39 6 3 7 1 4 -4 -9 -14 147 -154
353 -321 171 -138 204 -163 151 -114 -20 17 -35 37 -33 43 1 6 -3 7 -9 4 -6
-4 -21 2 -33 14 -11 12 -43 39 -71 62 -27 22 -49 44 -48 49 2 5 -3 7 -11 4 -8
-3 -20 3 -27 13 -8 10 -27 26 -42 36 -15 10 -25 23 -21 29 4 6 3 8 -3 5 -11
-7 -78 48 -78 65 -1 7 -6 12 -12 11 -6 -1 -21 9 -33 22 -17 18 -19 25 -9 25
12 0 11 2 -1 10 -13 9 -13 11 0 21 13 9 12 10 -3 5 -10 -3 -21 -6 -24 -6 -3 0
1 -8 8 -17 11 -15 10 -14 -9 1 -25 21 -30 41 -8 33 11 -4 15 13 21 77 l7 83
34 12 c39 14 47 36 9 27 -20 -5 -25 -3 -25 13 0 10 7 25 16 32 13 11 17 10 25
-4 6 -9 17 -17 24 -17 8 0 15 -4 15 -8 0 -4 13 -16 30 -25 16 -10 35 -23 42
-30 7 -7 29 -24 48 -37 19 -13 37 -27 40 -30 3 -3 24 -20 48 -39 47 -36 67
-36 33 0 -11 12 -17 27 -13 33 4 7 8 4 10 -6 2 -10 15 -21 28 -24 30 -8 44 3
18 13 -10 5 -20 19 -22 32 -3 29 -29 61 -49 61 -10 0 -12 18 -9 88 4 82 6 88
31 100 21 11 24 16 14 28 -28 34 4 18 111 -56 63 -44 120 -80 126 -80 5 0 23
-13 39 -30 23 -24 31 -27 47 -19 11 6 27 8 36 4 9 -4 36 -9 59 -12 33 -4 44
-2 49 11 3 9 12 16 20 16 25 0 3 27 -44 54 -34 19 -39 25 -19 20 17 -4 27 -2
27 5 0 6 -6 11 -14 11 -8 0 -18 5 -22 12 -5 8 2 9 23 5 27 -5 30 -4 26 13 -3
12 4 27 21 41 14 12 23 26 19 32 -3 5 3 6 15 3 12 -4 22 -1 25 8 4 9 14 13 29
9 18 -4 17 -2 -7 12 -41 22 -53 35 -26 28 11 -3 21 -9 21 -14 0 -5 6 -9 13 -9
8 0 14 6 14 13 0 8 -47 29 -116 52 -140 47 -373 162 -496 243 -233 155 -413
359 -486 552 -39 102 -60 234 -57 352 2 59 6 108 11 108 12 0 8 38 -5 43 -8 3
-6 6 5 6 9 1 17 8 17 16 0 22 -16 18 -34 -7z m525 -1471 c-1 -12 -15 -9 -19 4
-3 6 1 10 8 8 6 -3 11 -8 11 -12z m-14 -33 c-3 -3 -12 -4 -19 -1 -8 3 -5 6 6
6 11 1 17 -2 13 -5z m-390 -241 c-10 -9 24 -44 36 -36 6 4 7 1 2 -6 -5 -9 -13
-7 -31 10 -26 24 -31 39 -12 39 6 0 8 -3 5 -7z m30 -8 c0 -8 -4 -12 -9 -9 -5
3 -6 10 -3 15 9 13 12 11 12 -6z"/>
<path d="M3886 4485 c-3 -8 -1 -15 4 -15 6 0 10 7 10 15 0 8 -2 15 -4 15 -2 0
-6 -7 -10 -15z"/>
<path d="M4716 3972 c-2 -4 -1 -14 5 -22 7 -12 9 -10 9 8 0 23 -5 28 -14 14z"/>
<path d="M6625 3170 c11 -5 27 -9 35 -9 9 0 8 4 -5 9 -11 5 -27 9 -35 9 -9 0
-8 -4 5 -9z"/>
<path d="M8113 3165 c0 -8 4 -12 9 -9 4 3 8 9 8 15 0 5 -4 9 -8 9 -5 0 -9 -7
-9 -15z"/>
<path d="M8078 3163 c7 -3 16 -2 19 1 4 3 -2 6 -13 5 -11 0 -14 -3 -6 -6z"/>
<path d="M6725 3144 c28 -7 57 -13 65 -13 8 0 -7 7 -35 15 -27 7 -57 13 -65
13 -8 0 8 -7 35 -15z"/>
<path d="M7978 3143 c7 -3 16 -2 19 1 4 3 -2 6 -13 5 -11 0 -14 -3 -6 -6z"/>
<path d="M7928 3133 c7 -3 16 -2 19 1 4 3 -2 6 -13 5 -11 0 -14 -3 -6 -6z"/>
<path d="M6818 3123 c6 -2 18 -2 25 0 6 3 1 5 -13 5 -14 0 -19 -2 -12 -5z"/>
<path d="M7868 3123 c7 -3 16 -2 19 1 4 3 -2 6 -13 5 -11 0 -14 -3 -6 -6z"/>
<path d="M6873 3113 c9 -2 23 -2 30 0 6 3 -1 5 -18 5 -16 0 -22 -2 -12 -5z"/>
<path d="M7793 3113 c9 -2 23 -2 30 0 6 3 -1 5 -18 5 -16 0 -22 -2 -12 -5z"/>
<path d="M8039 3093 l-24 -28 28 24 c15 14 27 26 27 28 0 8 -8 1 -31 -24z"/>
<path d="M6943 3103 c9 -2 25 -2 35 0 9 3 1 5 -18 5 -19 0 -27 -2 -17 -5z"/>
<path d="M7723 3103 c9 -2 23 -2 30 0 6 3 -1 5 -18 5 -16 0 -22 -2 -12 -5z"/>
<path d="M7068 3093 c34 -2 88 -2 120 0 31 2 3 3 -63 3 -66 0 -92 -1 -57 -3z"/>
<path d="M7608 3093 c12 -2 30 -2 40 0 9 3 -1 5 -23 4 -22 0 -30 -2 -17 -4z"/>
<path d="M7353 3083 c31 -2 83 -2 115 0 31 2 5 3 -58 3 -63 0 -89 -1 -57 -3z"/>
<path d="M7984 3048 l-19 -23 23 19 c21 18 27 26 19 26 -2 0 -12 -10 -23 -22z"/>
<path d="M7939 3013 c-13 -16 -12 -17 4 -4 16 13 21 21 13 21 -2 0 -10 -8 -17
-17z"/>
<path d="M7804 2924 c-18 -14 -18 -15 4 -4 12 6 22 13 22 15 0 8 -5 6 -26 -11z"/>
<path d="M7600 2820 c-8 -5 -10 -10 -5 -10 6 0 17 5 25 10 8 5 11 10 5 10 -5
0 -17 -5 -25 -10z"/>
<path d="M7450 2760 c-8 -5 -10 -10 -5 -10 6 0 17 5 25 10 8 5 11 10 5 10 -5
0 -17 -5 -25 -10z"/>
<path d="M6048 2743 c-10 -2 -18 -9 -18 -14 0 -5 8 -13 18 -16 9 -4 20 -11 24
-17 4 -6 10 -7 15 -3 4 5 2 12 -5 16 -7 4 -10 15 -6 24 6 17 3 18 -28 10z"/>
<path d="M7258 2703 c7 -3 16 -2 19 1 4 3 -2 6 -13 5 -11 0 -14 -3 -6 -6z"/>
<path d="M7208 2693 c7 -3 16 -2 19 1 4 3 -2 6 -13 5 -11 0 -14 -3 -6 -6z"/>
<path d="M7158 2683 c6 -2 18 -2 25 0 6 3 1 5 -13 5 -14 0 -19 -2 -12 -5z"/>
<path d="M7088 2673 c6 -2 18 -2 25 0 6 3 1 5 -13 5 -14 0 -19 -2 -12 -5z"/>
<path d="M7013 2663 c9 -2 25 -2 35 0 9 3 1 5 -18 5 -19 0 -27 -2 -17 -5z"/>
<path d="M6616 2652 c5 -4 83 -4 174 -1 l165 5 -174 1 c-95 1 -169 -2 -165 -5z"/>
<path d="M6690 2575 c30 -30 57 -55 59 -55 3 0 -19 25 -49 55 -30 30 -57 55
-59 55 -3 0 19 -25 49 -55z"/>
<path d="M6770 2486 c0 -2 8 -10 18 -17 15 -13 16 -12 3 4 -13 16 -21 21 -21
13z"/>
<path d="M6810 2436 c0 -2 8 -10 18 -17 15 -13 16 -12 3 4 -13 16 -21 21 -21
13z"/>
<path d="M6879 2343 c12 -18 24 -33 27 -33 9 0 -15 37 -33 51 -12 10 -11 5 6
-18z"/>
<path d="M6150 2247 c0 -3 18 -20 40 -37 22 -17 40 -29 40 -27 0 3 -18 20 -40
37 -22 17 -40 29 -40 27z"/>
<path d="M6950 2230 c6 -11 13 -20 16 -20 2 0 0 9 -6 20 -6 11 -13 20 -16 20
-2 0 0 -9 6 -20z"/>
<path d="M6260 2155 c13 -14 26 -25 28 -25 3 0 -5 11 -18 25 -13 14 -26 25
-28 25 -3 0 5 -11 18 -25z"/>
<path d="M6300 2128 c0 -2 26 -26 58 -53 31 -27 48 -39 37 -26 -21 24 -95 86
-95 79z"/>
<path d="M6515 1930 c49 -49 92 -90 95 -90 2 0 -36 41 -85 90 -49 50 -92 90
-95 90 -2 0 36 -40 85 -90z"/>
<path d="M7101 1854 c0 -11 3 -14 6 -6 3 7 2 16 -1 19 -3 4 -6 -2 -5 -13z"/>
<path d="M6650 1780 c17 -22 34 -40 37 -40 2 0 -10 18 -27 40 -17 22 -34 40
-37 40 -2 0 10 -18 27 -40z"/>
<path d="M7111 1804 c0 -11 3 -14 6 -6 3 7 2 16 -1 19 -3 4 -6 -2 -5 -13z"/>
<path d="M7121 1744 c0 -11 3 -14 6 -6 3 7 2 16 -1 19 -3 4 -6 -2 -5 -13z"/>
<path d="M7134 1570 c0 -69 1 -97 3 -62 2 34 2 90 0 125 -2 34 -3 6 -3 -63z"/>
<path d="M7122 1400 c0 -14 2 -19 5 -12 2 6 2 18 0 25 -3 6 -5 1 -5 -13z"/>
<path d="M7111 1334 c0 -11 3 -14 6 -6 3 7 2 16 -1 19 -3 4 -6 -2 -5 -13z"/>
<path d="M7091 1244 c0 -11 3 -14 6 -6 3 7 2 16 -1 19 -3 4 -6 -2 -5 -13z"/>
<path d="M6951 1064 c0 -11 3 -14 6 -6 3 7 2 16 -1 19 -3 4 -6 -2 -5 -13z"/>
<path d="M7006 1005 c-9 -26 -7 -32 5 -12 6 10 9 21 6 23 -2 3 -7 -2 -11 -11z"/>
<path d="M6962 985 c0 -16 2 -22 5 -12 2 9 2 23 0 30 -3 6 -5 -1 -5 -18z"/>
</svg>